# xmcd
#
# Track frame offsets:
#	150
#	19285
#	39625
#	60195
#	75377
#	93710
#	111100
#	126370
#	140357
#	157609
#	174602
#	188584
#	209765
#	224817
#	241892
#
# Disc length: 3449 seconds
#
# Revision: 0
# Processed by: cddbd v1.4PL0 Copyright (c) Steve Scherf et al.
# Submitted via: dBpowerAMP V4.0
#
DISCID=cf0d770f
DTITLE=Grant and Forsyth - True Love Songs
DYEAR=1900
DGENRE=Country
TTITLE0=To Love Somebody
TTITLE1=True Love
TTITLE2=Something
TTITLE3=Dream a Litlle Dream Of Me
TTITLE4=I Love How You Love Me
TTITLE5=The Look Of
TTITLE6=The First Time I Ever Saw Your Face
TTITLE7=Rockin' Good Way
TTITLE8=Treat Me Gentle
TTITLE9=Will You Still Love Me Tomorrow
TTITLE10=Smile
TTITLE11=The More I See You
TTITLE12=Someone To Watch Over Me
TTITLE13=More Than I Can Say
TTITLE14=Always
EXTD=
EXTT0=
EXTT1=
EXTT2=
EXTT3=
EXTT4=
EXTT5=
EXTT6=
EXTT7=
EXTT8=
EXTT9=
EXTT10=
EXTT11=
EXTT12=
EXTT13=
EXTT14=
PLAYORDER=
